<svg width="52" height="52" viewBox="0 0 52 52" fill="none" xmlns="http://www.w3.org/2000/svg">
<g clip-path="url(#clip0_1_524)">
<path d="M26.0002 13C27.1851 13 28.3023 12.8307 29.3517 12.4922C30.4012 12.1536 31.4507 11.7812 32.5002 11.375C33.5497 10.9688 34.5907 10.5964 35.6232 10.2578C36.6558 9.91927 37.7814 9.75 39.0002 9.75V13C38.2554 13 37.5444 13.0762 36.8674 13.2285C36.1903 13.3809 35.5301 13.584 34.8869 13.8379C34.2437 14.0918 33.5835 14.3542 32.9064 14.625C32.2293 14.8958 31.5438 15.1582 30.8498 15.4121C30.1558 15.666 29.4025 15.8607 28.59 15.9961C27.7775 16.1315 26.9142 16.2161 26.0002 16.25C25.0692 16.25 24.2059 16.1738 23.4103 16.0215C22.6148 15.8691 21.8615 15.666 21.1506 15.4121C20.4396 15.1582 19.7625 14.8958 19.1193 14.625C18.4761 14.3542 17.8159 14.0918 17.1388 13.8379C16.4618 13.584 15.7931 13.3893 15.133 13.2539C14.4728 13.1185 13.7619 13.0339 13.0002 13V9.75C14.1681 9.75 15.2853 9.91927 16.3517 10.2578C17.4181 10.5964 18.4676 10.9688 19.5002 11.375C20.5327 11.7812 21.5822 12.1536 22.6486 12.4922C23.715 12.8307 24.8322 13 26.0002 13ZM52.0002 14.7012C52.0002 17.6973 51.7801 20.7441 51.34 23.8418C50.8999 26.9395 50.2567 30.0117 49.4103 33.0586C48.564 36.1055 47.4976 39.0592 46.2111 41.9199C44.9247 44.7806 43.4605 47.4805 41.8185 50.0195C41.4123 50.6289 40.896 51.1113 40.2697 51.4668C39.6434 51.8223 38.9579 52 38.2131 52C37.2821 52 36.4442 51.7376 35.6994 51.2129C34.9546 50.6882 34.4383 49.9772 34.1506 49.0801L29.631 35.5723C29.0386 35.64 28.4377 35.6823 27.8283 35.6992C27.2189 35.7161 26.6096 35.7331 26.0002 35.75C25.3908 35.75 24.7814 35.7415 24.172 35.7246C23.5627 35.7077 22.9618 35.6569 22.3693 35.5723L17.8498 49.0801C17.562 49.9603 17.0457 50.6628 16.301 51.1875C15.5562 51.7122 14.7183 51.9831 13.7873 52C13.0425 52 12.3569 51.8223 11.7306 51.4668C11.1043 51.1113 10.5881 50.6289 10.1818 50.0195C8.52296 47.4974 7.05877 44.806 5.78924 41.9453C4.51971 39.0846 3.46176 36.1309 2.61541 33.084C1.76905 30.0371 1.11736 26.9648 0.660331 23.8672C0.203299 20.7695 -0.0167527 17.7142 0.000174386 14.7012C0.000174386 12.8053 0.287935 10.9772 0.863456 9.2168C1.43898 7.45638 2.27687 5.89062 3.37713 4.51953C4.47739 3.14844 5.83155 2.05664 7.43963 1.24414C9.0477 0.431641 10.8843 0.0169271 12.9494 0C14.1512 0 15.2769 0.169271 16.3263 0.507812C17.3758 0.846354 18.4253 1.21875 19.4748 1.625C20.5243 2.03125 21.5653 2.40365 22.5978 2.74219C23.6304 3.08073 24.7645 3.25 26.0002 3.25C27.202 3.25 28.3277 3.08073 29.3771 2.74219C30.4266 2.40365 31.4761 2.03125 32.5256 1.625C33.575 1.21875 34.6161 0.846354 35.6486 0.507812C36.6812 0.169271 37.8153 0 39.051 0C41.1161 0 42.9526 0.40625 44.5607 1.21875C46.1688 2.03125 47.523 3.12305 48.6232 4.49414C49.7235 5.86523 50.5614 7.43099 51.1369 9.19141C51.7124 10.9518 52.0002 12.7884 52.0002 14.7012ZM48.7502 14.752C48.7502 13.1777 48.5386 11.6966 48.1154 10.3086C47.6922 8.92057 47.0575 7.70182 46.2111 6.65234C45.3648 5.60286 44.2984 4.77344 43.0119 4.16406C41.7254 3.55469 40.2443 3.25 38.5685 3.25C37.5868 3.25 36.6473 3.41927 35.7502 3.75781C34.853 4.09635 33.9051 4.46875 32.9064 4.875C31.9077 5.28125 30.8582 5.65365 29.758 5.99219C28.6577 6.33073 27.4051 6.5 26.0002 6.5C24.5952 6.5 23.3426 6.33073 22.2424 5.99219C21.1421 5.65365 20.0926 5.28125 19.0939 4.875C18.0952 4.46875 17.1304 4.09635 16.1994 3.75781C15.2684 3.41927 14.2359 3.25 13.1017 3.25C11.4598 3.25 10.021 3.57161 8.78533 4.21484C7.54965 4.85807 6.52557 5.71289 5.71307 6.7793C4.90057 7.8457 4.28273 9.06445 3.85955 10.4355C3.43637 11.8066 3.23325 13.2454 3.25017 14.752C3.25017 16.4108 3.34327 18.1966 3.52947 20.1094C3.71567 22.0221 4.00343 24.0026 4.39275 26.0508C4.78208 28.099 5.24757 30.1387 5.78924 32.1699C6.3309 34.2012 6.96567 36.1986 7.69353 38.1621C8.4214 40.1257 9.22543 41.9538 10.1056 43.6465C10.9859 45.3392 11.9338 46.8796 12.9494 48.2676C13.2033 48.5892 13.5249 48.75 13.9142 48.75C14.1174 48.75 14.3797 48.4453 14.7013 47.8359C15.023 47.2266 15.3615 46.431 15.717 45.4492C16.0724 44.4674 16.4533 43.401 16.8595 42.25C17.2658 41.099 17.6297 39.9733 17.9513 38.873C18.273 37.7728 18.5861 36.7741 18.8908 35.877C19.1955 34.9798 19.3986 34.3281 19.5002 33.9219C19.6356 33.4818 19.8895 33.1009 20.2619 32.7793C20.6343 32.4577 21.0744 32.2884 21.5822 32.2715C22.327 32.2715 23.0633 32.3053 23.7912 32.373C24.5191 32.4408 25.2554 32.4831 26.0002 32.5C26.745 32.5 27.4813 32.4661 28.2092 32.3984C28.937 32.3307 29.6734 32.2884 30.4181 32.2715C30.909 32.2715 31.3407 32.4323 31.7131 32.7539C32.0855 33.0755 32.3478 33.4648 32.5002 33.9219C32.6356 34.3281 32.8387 34.9798 33.1096 35.877C33.3804 36.7741 33.6851 37.7643 34.0236 38.8477C34.3622 39.931 34.7346 41.0651 35.1408 42.25C35.5471 43.4349 35.9194 44.5013 36.258 45.4492C36.5965 46.3971 36.9435 47.1842 37.299 47.8105C37.6545 48.4368 37.9168 48.75 38.0861 48.75C38.4754 48.75 38.7971 48.5892 39.051 48.2676C40.0666 46.9134 41.0145 45.373 41.8947 43.6465C42.7749 41.9199 43.5705 40.0918 44.2814 38.1621C44.9924 36.2324 45.6271 34.2435 46.1857 32.1953C46.7443 30.1471 47.2098 28.1074 47.5822 26.0762C47.9546 24.0449 48.2424 22.0645 48.4455 20.1348C48.6486 18.2051 48.7502 16.4108 48.7502 14.752Z" fill="#00B4D7"/>
</g>
<defs>
<clipPath id="clip0_1_524">
<rect width="52" height="52" fill="white"/>
</clipPath>
</defs>
</svg>
