<svg width="198" height="42" viewBox="0 0 198 42" fill="none" xmlns="http://www.w3.org/2000/svg">
<path d="M20.625 2.57812C10.6589 2.57812 2.57812 10.6589 2.57812 20.625C2.57812 30.5911 10.6589 38.6719 20.625 38.6719C30.5911 38.6719 38.6719 30.5911 38.6719 20.625C38.6719 10.6589 30.5911 2.57812 20.625 2.57812ZM29.298 16.1818C29.3101 16.3711 29.3101 16.5685 29.3101 16.7618C29.3101 22.6754 24.8064 29.4873 16.5765 29.4873C14.0387 29.4873 11.6862 28.7501 9.70422 27.4812C10.0668 27.5215 10.4132 27.5376 10.7838 27.5376C12.8785 27.5376 14.8041 26.8286 16.3389 25.6282C14.373 25.5879 12.7214 24.2988 12.1575 22.5264C12.8463 22.6271 13.4667 22.6271 14.1757 22.4458C13.1634 22.2402 12.2536 21.6904 11.6008 20.89C10.948 20.0896 10.5924 19.0878 10.5945 18.0549V17.9985C11.1866 18.3329 11.8835 18.5383 12.6127 18.5665C11.9997 18.158 11.4971 17.6046 11.1492 16.9553C10.8014 16.306 10.6191 15.5809 10.6187 14.8444C10.6187 14.0105 10.8362 13.2491 11.2269 12.5885C12.3504 13.9716 13.7524 15.1027 15.3417 15.9085C16.931 16.7143 18.6721 17.1766 20.4518 17.2654C19.8193 14.224 22.0913 11.7627 24.8225 11.7627C26.1116 11.7627 27.2717 12.3025 28.0895 13.1726C29.1006 12.9833 30.0674 12.6046 30.9294 12.097C30.5951 13.1323 29.8942 14.0065 28.9636 14.5583C29.866 14.4617 30.7361 14.2119 31.5417 13.8615C30.9335 14.7557 30.1721 15.5493 29.298 16.1818Z" fill="white"/>
<g clip-path="url(#clip0_1_430)">
<path d="M123.75 4.78467C115.002 4.78467 107.91 11.8764 107.91 20.6247C107.91 29.373 115.002 36.4647 123.75 36.4647C132.498 36.4647 139.59 29.373 139.59 20.6247C139.59 11.8764 132.498 4.78467 123.75 4.78467ZM119.873 27.19H116.665V16.8676H119.873V27.19ZM118.249 15.6004C117.236 15.6004 116.581 14.8827 116.581 13.995C116.581 13.0891 117.256 12.3928 118.29 12.3928C119.325 12.3928 119.958 13.0891 119.978 13.995C119.978 14.8827 119.325 15.6004 118.249 15.6004ZM131.588 27.19H128.38V21.4695C128.38 20.1379 127.915 19.2337 126.755 19.2337C125.869 19.2337 125.342 19.8459 125.11 20.4349C125.024 20.6445 125.003 20.9415 125.003 21.2368V27.1884H121.793V20.1594C121.793 18.8707 121.752 17.7933 121.709 16.866H124.496L124.643 18.2998H124.707C125.13 17.6266 126.164 16.6333 127.895 16.6333C130.005 16.6333 131.588 18.0474 131.588 21.0867V27.19Z" fill="white"/>
</g>
<g clip-path="url(#clip1_1_430)">
<path fill-rule="evenodd" clip-rule="evenodd" d="M57.75 20.7171C57.75 28.9204 63.7079 35.7418 71.5 37.125V25.2079H67.375V20.625H71.5V16.9579C71.5 12.8329 74.1579 10.5421 77.9171 10.5421C79.1079 10.5421 80.3921 10.725 81.5829 10.9079V15.125H79.475C77.4579 15.125 77 16.1329 77 17.4171V20.625H81.4L80.6671 25.2079H77V37.125C84.7921 35.7418 90.75 28.9218 90.75 20.7171C90.75 11.5913 83.325 4.125 74.25 4.125C65.175 4.125 57.75 11.5913 57.75 20.7171Z" fill="white"/>
</g>
<path d="M177.372 15.2551C174.415 15.2551 172.002 17.6681 172.002 20.6249C172.002 23.5816 174.415 25.9946 177.372 25.9946C180.329 25.9946 182.742 23.5816 182.742 20.6249C182.742 17.6681 180.329 15.2551 177.372 15.2551ZM193.477 20.6249C193.477 18.4012 193.497 16.1977 193.372 13.9781C193.247 11.4 192.659 9.11192 190.774 7.22666C188.885 5.33738 186.601 4.75327 184.023 4.6284C181.799 4.50352 179.595 4.52366 177.376 4.52366C175.152 4.52366 172.949 4.50352 170.729 4.6284C168.151 4.75327 165.863 5.34141 163.978 7.22666C162.088 9.11594 161.504 11.4 161.379 13.9781C161.254 16.2018 161.275 18.4053 161.275 20.6249C161.275 22.8445 161.254 25.052 161.379 27.2716C161.504 29.8497 162.092 32.1378 163.978 34.023C165.867 35.9123 168.151 36.4964 170.729 36.6213C172.953 36.7462 175.156 36.7261 177.376 36.7261C179.599 36.7261 181.803 36.7462 184.023 36.6213C186.601 36.4964 188.889 35.9083 190.774 34.023C192.663 32.1338 193.247 29.8497 193.372 27.2716C193.501 25.052 193.477 22.8485 193.477 20.6249ZM177.372 28.8869C172.8 28.8869 169.11 25.197 169.11 20.6249C169.11 16.0527 172.8 12.3628 177.372 12.3628C181.944 12.3628 185.634 16.0527 185.634 20.6249C185.634 25.197 181.944 28.8869 177.372 28.8869ZM185.972 13.954C184.905 13.954 184.043 13.0919 184.043 12.0244C184.043 10.9569 184.905 10.0948 185.972 10.0948C187.04 10.0948 187.902 10.9569 187.902 12.0244C187.902 12.2779 187.852 12.5289 187.756 12.7632C187.659 12.9974 187.517 13.2103 187.337 13.3895C187.158 13.5687 186.945 13.7109 186.711 13.8077C186.477 13.9046 186.226 13.9543 185.972 13.954Z" fill="white"/>
<defs>
<clipPath id="clip0_1_430">
<rect width="33" height="33" fill="white" transform="translate(107.25 4.125)"/>
</clipPath>
<clipPath id="clip1_1_430">
<rect width="33" height="33" fill="white" transform="translate(57.75 4.125)"/>
</clipPath>
</defs>
</svg>
