<svg width="33" height="33" viewBox="0 0 33 33" fill="none" xmlns="http://www.w3.org/2000/svg">
<path d="M16.7502 0.784668C8.00186 0.784668 0.910156 7.87637 0.910156 16.6247C0.910156 25.373 8.00186 32.4647 16.7502 32.4647C25.4985 32.4647 32.5902 25.373 32.5902 16.6247C32.5902 7.87637 25.4985 0.784668 16.7502 0.784668ZM12.8727 23.19H9.66506V12.8676H12.8727V23.19ZM11.2491 11.6004C10.236 11.6004 9.58091 10.8827 9.58091 9.99497C9.58091 9.08912 10.2558 8.39282 11.2903 8.39282C12.3249 8.39282 12.9585 9.08912 12.9783 9.99497C12.9783 10.8827 12.3249 11.6004 11.2491 11.6004ZM24.5877 23.19H21.3801V17.4695C21.3801 16.1379 20.9148 15.2337 19.7548 15.2337C18.8688 15.2337 18.3424 15.8459 18.1098 16.4349C18.024 16.6445 18.0025 16.9415 18.0025 17.2368V23.1884H14.7933V16.1594C14.7933 14.8707 14.752 13.7933 14.7091 12.866H17.496L17.6428 14.2998H17.7072C18.1296 13.6266 19.1641 12.6333 20.895 12.6333C23.0053 12.6333 24.5877 14.0474 24.5877 17.0867V23.19Z" fill="white"/>
</svg>
