<svg width="37" height="37" viewBox="0 0 37 37" fill="none" xmlns="http://www.w3.org/2000/svg">
<path d="M18.625 0.578125C8.65894 0.578125 0.578125 8.65894 0.578125 18.625C0.578125 28.5911 8.65894 36.6719 18.625 36.6719C28.5911 36.6719 36.6719 28.5911 36.6719 18.625C36.6719 8.65894 28.5911 0.578125 18.625 0.578125ZM27.298 14.1818C27.3101 14.3711 27.3101 14.5685 27.3101 14.7618C27.3101 20.6754 22.8064 27.4873 14.5765 27.4873C12.0387 27.4873 9.68616 26.7501 7.70422 25.4812C8.06677 25.5215 8.41321 25.5376 8.78381 25.5376C10.8785 25.5376 12.8041 24.8286 14.3389 23.6282C12.373 23.5879 10.7214 22.2988 10.1575 20.5264C10.8463 20.6271 11.4667 20.6271 12.1757 20.4458C11.1634 20.2402 10.2536 19.6904 9.60082 18.89C8.948 18.0896 8.59241 17.0878 8.59448 16.0549V15.9985C9.18665 16.3329 9.88354 16.5383 10.6127 16.5665C9.99973 16.158 9.49706 15.6046 9.14923 14.9553C8.80139 14.306 8.61915 13.5809 8.61865 12.8444C8.61865 12.0105 8.83618 11.2491 9.22693 10.5885C10.3504 11.9716 11.7524 13.1027 13.3417 13.9085C14.931 14.7143 16.6721 15.1766 18.4518 15.2654C17.8193 12.224 20.0913 9.7627 22.8225 9.7627C24.1116 9.7627 25.2717 10.3025 26.0895 11.1726C27.1006 10.9833 28.0674 10.6046 28.9294 10.097C28.5951 11.1323 27.8942 12.0065 26.9636 12.5583C27.866 12.4617 28.7361 12.2119 29.5417 11.8615C28.9335 12.7557 28.1721 13.5493 27.298 14.1818Z" fill="white"/>
</svg>
