<svg width="40" height="46" viewBox="0 0 40 46" fill="none" xmlns="http://www.w3.org/2000/svg">
<path d="M12.1333 20.8C9.83479 20.8 7.63039 19.8869 6.00507 18.2616C4.37976 16.6363 3.46667 14.4319 3.46667 12.1333V5.2C3.46667 4.74029 3.64929 4.29941 3.97435 3.97435C4.29941 3.64929 4.74029 3.46667 5.2 3.46667H6.93333C7.39304 3.46667 7.83392 3.28405 8.15899 2.95899C8.48405 2.63392 8.66667 2.19304 8.66667 1.73333C8.66667 1.27362 8.48405 0.832745 8.15899 0.507681C7.83392 0.182618 7.39304 0 6.93333 0H5.2C3.82087 0 2.49823 0.547856 1.52304 1.52304C0.547856 2.49823 0 3.82087 0 5.2V12.1333C0.00222806 14.0915 0.479738 16.02 1.39152 17.7529C2.3033 19.4859 3.6221 20.9717 5.23467 22.0827C6.78397 23.4486 8.04043 25.1143 8.9282 26.9792C9.81597 28.8441 10.3166 30.8696 10.4 32.9333C10.4 36.1513 11.6783 39.2375 13.9538 41.5129C16.2292 43.7883 19.3154 45.0667 22.5333 45.0667C25.7513 45.0667 28.8375 43.7883 31.1129 41.5129C33.3883 39.2375 34.6667 36.1513 34.6667 32.9333V30.9573C36.3006 30.5355 37.7246 29.5321 38.6717 28.1355C39.6188 26.7388 40.024 25.0446 39.8114 23.3705C39.5988 21.6965 38.7829 20.1574 37.5167 19.0418C36.2505 17.9263 34.6209 17.3108 32.9333 17.3108C31.2458 17.3108 29.6162 17.9263 28.35 19.0418C27.0838 20.1574 26.2679 21.6965 26.0553 23.3705C25.8426 25.0446 26.2478 26.7388 27.195 28.1355C28.1421 29.5321 29.5661 30.5355 31.2 30.9573V32.9333C31.2 35.2319 30.2869 37.4363 28.6616 39.0616C27.0363 40.6869 24.8319 41.6 22.5333 41.6C20.2348 41.6 18.0304 40.6869 16.4051 39.0616C14.7798 37.4363 13.8667 35.2319 13.8667 32.9333C13.9544 30.867 14.4605 28.84 15.3543 26.9749C16.2481 25.1098 17.511 23.4455 19.0667 22.0827C20.6728 20.9678 21.9849 19.4804 22.8905 17.7476C23.7961 16.0149 24.2683 14.0885 24.2667 12.1333V5.2C24.2667 3.82087 23.7188 2.49823 22.7436 1.52304C21.7684 0.547856 20.4458 0 19.0667 0H17.3333C16.8736 0 16.4327 0.182618 16.1077 0.507681C15.7826 0.832745 15.6 1.27362 15.6 1.73333C15.6 2.19304 15.7826 2.63392 16.1077 2.95899C16.4327 3.28405 16.8736 3.46667 17.3333 3.46667H19.0667C19.5264 3.46667 19.9673 3.64929 20.2923 3.97435C20.6174 4.29941 20.8 4.74029 20.8 5.2V12.1333C20.8 13.2715 20.5758 14.3984 20.1403 15.4499C19.7047 16.5014 19.0664 17.4568 18.2616 18.2616C17.4568 19.0664 16.5014 19.7047 15.4499 20.1403C14.3984 20.5758 13.2715 20.8 12.1333 20.8ZM32.9333 27.7333C32.0139 27.7333 31.1322 27.3681 30.482 26.718C29.8319 26.0678 29.4667 25.1861 29.4667 24.2667C29.4667 23.3472 29.8319 22.4655 30.482 21.8154C31.1322 21.1652 32.0139 20.8 32.9333 20.8C33.8528 20.8 34.7345 21.1652 35.3846 21.8154C36.0348 22.4655 36.4 23.3472 36.4 24.2667C36.4 25.1861 36.0348 26.0678 35.3846 26.718C34.7345 27.3681 33.8528 27.7333 32.9333 27.7333Z" fill="#00B4D7"/>
</svg>
