<svg width="53" height="53" viewBox="0 0 53 53" fill="none" xmlns="http://www.w3.org/2000/svg">
<path d="M49.1415 48.6917C49.1415 46.4016 45.1661 40.001 45.1661 40.001C45.1661 40.001 41.1306 46.4016 41.1306 48.6917C41.1306 50.9772 42.9249 52.8309 45.1366 52.8309C47.3472 52.8309 49.1415 50.9772 49.1415 48.6917ZM20.397 12.8299H12.3862V4.52967H14.5706V0H0V4.52967H2.18548V17.3584C2.18548 20.6936 4.79493 23.396 8.01305 23.396H20.397V25.6609H24.7691V10.5673H20.397V12.8299ZM50.2637 31.6974V18.8687C50.2637 15.5346 47.6554 12.831 44.4405 12.831H32.0544V10.5685H27.6823V25.6632H32.0544V23.3972H40.0663V31.6974H37.8841V36.2271H52.4514V31.6974H50.2637Z" fill="#00B4D7"/>
</svg>
