<svg width="26" height="48" viewBox="0 0 26 48" fill="none" xmlns="http://www.w3.org/2000/svg">
<path d="M2.16667 47.6667C1.44444 46.2222 0.902778 44.4528 0.541667 42.3583C0.180556 40.2639 0 38.1333 0 35.9667C0 32.3917 0.397223 29.4392 1.19167 27.1093C1.98611 24.7809 3.03333 22.9667 4.33333 21.6667V10.8333L10.8333 0H15.1667L21.6667 10.8333V21.6667C23.0028 22.9667 24.0587 24.7809 24.8343 27.1093C25.6114 29.4392 26 32.3917 26 35.9667C26 38.1333 25.8194 40.2639 25.4583 42.3583C25.0972 44.4528 24.5556 46.2222 23.8333 47.6667C22.3167 47.1972 21.1069 46.3392 20.2042 45.0927C19.3014 43.8476 18.8681 42.4306 18.9042 40.8417C18.9042 39.9389 19.0038 38.9639 19.2032 37.9167C19.4011 36.8694 19.5 35.8222 19.5 34.775C19.5 32.6806 18.9316 30.4778 17.7948 28.1667C16.6566 25.8556 15.0583 23.6889 13 21.6667C10.9778 23.6889 9.38889 25.8556 8.23333 28.1667C7.07778 30.4778 6.5 32.6806 6.5 34.775C6.5 35.8222 6.60833 36.8694 6.825 37.9167C7.04167 38.9639 7.16806 39.9389 7.20417 40.8417C7.20417 42.4306 6.74411 43.8569 5.824 45.1208C4.90244 46.3847 3.68333 47.2333 2.16667 47.6667ZM13 15.1667C12.3861 15.1667 11.8719 14.9594 11.4573 14.5448C11.0413 14.1288 10.8333 13.6139 10.8333 13C10.8333 12.6028 10.9236 12.2417 11.1042 11.9167C11.2847 11.5917 11.5556 11.3389 11.9167 11.1583V6.55417L8.66667 12.025V17.3333H17.3333V12.025L14.0833 6.55417V11.1583C14.4444 11.3389 14.7153 11.5917 14.8958 11.9167C15.0764 12.2417 15.1667 12.6028 15.1667 13C15.1667 13.6139 14.9594 14.1288 14.5448 14.5448C14.1288 14.9594 13.6139 15.1667 13 15.1667Z" fill="#00B4D7"/>
</svg>
