<svg width="33" height="33" viewBox="0 0 33 33" fill="none" xmlns="http://www.w3.org/2000/svg">
<path d="M16.3718 11.2551C13.415 11.2551 11.0021 13.6681 11.0021 16.6249C11.0021 19.5816 13.415 21.9946 16.3718 21.9946C19.3286 21.9946 21.7416 19.5816 21.7416 16.6249C21.7416 13.6681 19.3286 11.2551 16.3718 11.2551ZM32.477 16.6249C32.477 14.4012 32.4972 12.1977 32.3723 9.97813C32.2474 7.4 31.6593 5.11192 29.774 3.22666C27.8847 1.33738 25.6007 0.753273 23.0226 0.628395C20.7989 0.503517 18.5954 0.523659 16.3758 0.523659C14.1522 0.523659 11.9487 0.503517 9.7291 0.628395C7.15098 0.753273 4.86289 1.34141 2.97764 3.22666C1.08836 5.11594 0.50425 7.4 0.379372 9.97813C0.254494 12.2018 0.274636 14.4053 0.274636 16.6249C0.274636 18.8445 0.254494 21.052 0.379372 23.2716C0.50425 25.8497 1.09238 28.1378 2.97764 30.023C4.86692 31.9123 7.15098 32.4964 9.7291 32.6213C11.9527 32.7462 14.1562 32.7261 16.3758 32.7261C18.5995 32.7261 20.803 32.7462 23.0226 32.6213C25.6007 32.4964 27.8888 31.9083 29.774 30.023C31.6633 28.1338 32.2474 25.8497 32.3723 23.2716C32.5012 21.052 32.477 18.8485 32.477 16.6249ZM16.3718 24.8869C11.7997 24.8869 8.10972 21.197 8.10972 16.6249C8.10972 12.0527 11.7997 8.36277 16.3718 8.36277C20.9439 8.36277 24.6339 12.0527 24.6339 16.6249C24.6339 21.197 20.9439 24.8869 16.3718 24.8869ZM24.9723 9.95396C23.9048 9.95396 23.0427 9.0919 23.0427 8.02439C23.0427 6.95689 23.9048 6.09483 24.9723 6.09483C26.0398 6.09483 26.9018 6.95689 26.9018 8.02439C26.9022 8.27787 26.8525 8.52893 26.7556 8.76318C26.6587 8.99743 26.5166 9.21027 26.3374 9.38951C26.1581 9.56875 25.9453 9.71087 25.7111 9.80773C25.4768 9.90458 25.2258 9.95427 24.9723 9.95396Z" fill="white"/>
</svg>
