<svg width="52" height="52" viewBox="0 0 52 52" fill="none" xmlns="http://www.w3.org/2000/svg">
<path d="M0 0V16.8649C0 18.7387 3.85185 20.6126 3.85185 20.6126C3.85185 33.7297 1.92593 41.2252 1.92593 44.973C1.92593 46.8468 1.92593 48.7207 3.85185 50.5946C5.77778 52.4685 5.77778 52.4685 7.7037 50.5946C9.62963 48.7207 9.62963 46.8468 9.62963 44.973C9.62963 41.2252 7.7037 33.7297 7.7037 20.6126C7.7037 20.6126 11.5556 18.7387 11.5556 16.8649V0H9.38889V11.2432H6.86111V0H4.69444V11.2432H2.16667V0H0ZM24.3148 0C22.3889 0 22.3889 1.87387 22.3889 1.87387V33.7297H22.437C21.8833 39.0937 21.1852 42.7243 21.1852 44.973C21.1852 46.8468 21.1852 48.7207 23.1111 50.5946C25.037 52.4685 25.037 52.4685 26.963 50.5946C28.8889 48.7207 28.8889 46.8468 28.8889 44.973C28.8889 42.3847 27.9741 38.0045 27.3963 31.2117C28.8769 27.6865 30.0926 23.2126 30.0926 18.7387C30.0926 13.1171 26.987 2.62342 24.3148 0ZM44.2963 0C42.2532 0 40.2937 1.18455 38.849 3.29307C37.4042 5.40159 36.5926 8.26135 36.5926 11.2432C36.5946 13.7305 37.1616 16.1465 38.2049 18.1131C39.2483 20.0798 40.7089 21.486 42.3583 22.1117C42.2259 34.3036 40.4444 41.3658 40.4444 44.973C40.4444 46.8468 40.4444 48.7207 42.3704 50.5946C44.2963 52.4685 44.2963 52.4685 46.2222 50.5946C48.1481 48.7207 48.1481 46.8468 48.1481 44.973C48.1481 41.3658 46.3667 34.3036 46.2343 22.1234C47.885 21.4972 49.3467 20.0892 50.3901 18.1202C51.4336 16.1512 51.9998 13.7325 52 11.2432C52 8.26135 51.1884 5.40159 49.7436 3.29307C48.2989 1.18455 46.3394 0 44.2963 0Z" fill="#00B4D7"/>
</svg>
